<mxfile host="app.diagrams.net" agent="Mozilla/5.0 (Windows NT 10.0; Win64; x64) AppleWebKit/537.36 (KHTML, like Gecko) Chrome/127.0.0.0 Safari/537.36 Edg/127.0.0.0" version="24.7.7">
  <diagram name="第 1 页" id="tdtTJOpiyjYbNTU55f6P">
    <mxGraphModel dx="713" dy="530" grid="1" gridSize="10" guides="1" tooltips="1" connect="1" arrows="1" fold="1" page="1" pageScale="1" pageWidth="827" pageHeight="1169" math="0" shadow="0">
      <root>
        <mxCell id="0" />
        <mxCell id="1" parent="0" />
        <mxCell id="kyx921TAOTFuDbzV7DlR-3" style="edgeStyle=orthogonalEdgeStyle;rounded=0;orthogonalLoop=1;jettySize=auto;html=1;entryX=0;entryY=0.5;entryDx=0;entryDy=0;" edge="1" parent="1" source="kyx921TAOTFuDbzV7DlR-1" target="kyx921TAOTFuDbzV7DlR-2">
          <mxGeometry relative="1" as="geometry" />
        </mxCell>
        <mxCell id="kyx921TAOTFuDbzV7DlR-1" value="StmtExecutor" style="rounded=0;whiteSpace=wrap;html=1;" vertex="1" parent="1">
          <mxGeometry x="340" y="190" width="120" height="60" as="geometry" />
        </mxCell>
        <mxCell id="kyx921TAOTFuDbzV7DlR-2" value="StatementPlaner" style="rounded=0;whiteSpace=wrap;html=1;" vertex="1" parent="1">
          <mxGeometry x="540" y="190" width="120" height="60" as="geometry" />
        </mxCell>
        <mxCell id="kyx921TAOTFuDbzV7DlR-4" value="plan" style="text;html=1;align=center;verticalAlign=middle;resizable=0;points=[];autosize=1;strokeColor=none;fillColor=none;" vertex="1" parent="1">
          <mxGeometry x="480" y="190" width="50" height="30" as="geometry" />
        </mxCell>
        <mxCell id="kyx921TAOTFuDbzV7DlR-6" style="edgeStyle=orthogonalEdgeStyle;rounded=0;orthogonalLoop=1;jettySize=auto;html=1;" edge="1" parent="1" source="kyx921TAOTFuDbzV7DlR-5" target="kyx921TAOTFuDbzV7DlR-1">
          <mxGeometry relative="1" as="geometry" />
        </mxCell>
        <mxCell id="kyx921TAOTFuDbzV7DlR-5" value="ConnectProcessor" style="rounded=0;whiteSpace=wrap;html=1;" vertex="1" parent="1">
          <mxGeometry x="160" y="190" width="120" height="60" as="geometry" />
        </mxCell>
        <mxCell id="kyx921TAOTFuDbzV7DlR-7" value="execute" style="text;html=1;align=center;verticalAlign=middle;resizable=0;points=[];autosize=1;strokeColor=none;fillColor=none;" vertex="1" parent="1">
          <mxGeometry x="280" y="190" width="70" height="30" as="geometry" />
        </mxCell>
        <mxCell id="kyx921TAOTFuDbzV7DlR-9" style="edgeStyle=orthogonalEdgeStyle;rounded=0;orthogonalLoop=1;jettySize=auto;html=1;entryX=0.5;entryY=0;entryDx=0;entryDy=0;" edge="1" parent="1" source="kyx921TAOTFuDbzV7DlR-8" target="kyx921TAOTFuDbzV7DlR-5">
          <mxGeometry relative="1" as="geometry" />
        </mxCell>
        <mxCell id="kyx921TAOTFuDbzV7DlR-8" value="ReadListener" style="rounded=0;whiteSpace=wrap;html=1;" vertex="1" parent="1">
          <mxGeometry x="160" y="80" width="120" height="60" as="geometry" />
        </mxCell>
        <mxCell id="kyx921TAOTFuDbzV7DlR-10" value="processOnce" style="text;html=1;align=center;verticalAlign=middle;resizable=0;points=[];autosize=1;strokeColor=none;fillColor=none;" vertex="1" parent="1">
          <mxGeometry x="220" y="148" width="90" height="30" as="geometry" />
        </mxCell>
      </root>
    </mxGraphModel>
  </diagram>
</mxfile>
